<svg xmlns="http://www.w3.org/2000/svg" viewBox="0 0 32 32" width="32" height="32">
  <defs>
    <linearGradient id="bg" x1="0" y1="0" x2="1" y2="1">
      <stop offset="0%" stop-color="#059669"/>
      <stop offset="100%" stop-color="#0f3d2e"/>
    </linearGradient>
    <clipPath id="clip">
      <rect width="32" height="32" rx="7"/>
    </clipPath>
  </defs>
  <!-- Background -->
  <rect width="32" height="32" rx="7" fill="url(#bg)"/>
  <!-- Tooth icon (scaled to fit 32x32 with padding) -->
  <g clip-path="url(#clip)" transform="translate(4, 3) scale(1.0)">
    <path
      d="M12 2C8 2 6 5 6 9c0 3.5 1.5 8 3 12 1 2 2 2 3 0 .5-1 1-1 1.5 0 1 2 2 2 3 0 1.5-4 3-8.5 3-12 0-4-2-7-6.5-7h-2z"
      fill="none" stroke="white" stroke-width="2" stroke-linecap="round" stroke-linejoin="round"
    />
    <path
      d="M9 9c0-1 1.5-2 3-2s3 1 3 2"
      fill="none" stroke="white" stroke-width="2" stroke-linecap="round" stroke-linejoin="round"
    />
  </g>
</svg>
